#tb 0: 1/25
#media_type 0: video
#codec_id 0: rawvideo
#dimensions 0: 352x288
#sar 0: 0/1
0,          0,          0,        1,   405504, 0x77a49e3a
0,          1,          1,        1,   405504, 0xe35e0aef
0,          2,          2,        1,   405504, 0xa7ba0176
0,          3,          3,        1,   405504, 0x53ad9758
0,          4,          4,        1,   405504, 0x4eeb7b13
0,          5,          5,        1,   405504, 0xe1cf3efa
0,          6,          6,        1,   405504, 0x54a60bbf
0,          7,          7,        1,   405504, 0x131aa692
0,          8,          8,        1,   405504, 0x8b18287b
0,          9,          9,        1,   405504, 0x960e25c9
0,         10,         10,        1,   405504, 0xd84d2ff9
0,         11,         11,        1,   405504, 0x911dbdf6
0,         12,         12,        1,   405504, 0xfae5c62d
0,         13,         13,        1,   405504, 0x679ecbe6
0,         14,         14,        1,   405504, 0x687f92c2
0,         15,         15,        1,   405504, 0x3e652dd9
0,         16,         16,        1,   405504, 0x906e8a66
0,         17,         17,        1,   405504, 0x259659ac
0,         18,         18,        1,   405504, 0x23f972c7
0,         19,         19,        1,   405504, 0x61fcaf23
0,         20,         20,        1,   405504, 0xc106327f
0,         21,         21,        1,   405504, 0x576fc84b
0,         22,         22,        1,   405504, 0x1b30d9a7
0,         23,         23,        1,   405504, 0x1ec49a9b
0,         24,         24,        1,   405504, 0x41eb3f72
0,         25,         25,        1,   405504, 0x7b301d72
0,         26,         26,        1,   405504, 0x2517e479
0,         27,         27,        1,   405504, 0x0492cb92
0,         28,         28,        1,   405504, 0x5427e563
0,         29,         29,        1,   405504, 0x198684ac
0,         30,         30,        1,   405504, 0xf467cd58
0,         31,         31,        1,   405504, 0x89506223
0,         32,         32,        1,   405504, 0x93d08869
0,         33,         33,        1,   405504, 0xe0b514ab
0,         34,         34,        1,   405504, 0x5aa4a74d
0,         35,         35,        1,   405504, 0xbab9673d
0,         36,         36,        1,   405504, 0xd11e3734
0,         37,         37,        1,   405504, 0xf564212c
0,         38,         38,        1,   405504, 0x244c6b17
0,         39,         39,        1,   405504, 0x6c529f4c
0,         40,         40,        1,   405504, 0xcfb33371
0,         41,         41,        1,   405504, 0x78a55ded
0,         42,         42,        1,   405504, 0xb5a2f6d5
0,         43,         43,        1,   405504, 0x9b586a98
0,         44,         44,        1,   405504, 0xede0bab9
0,         45,         45,        1,   405504, 0x46e3b241
0,         46,         46,        1,   405504, 0xd66e877d
0,         47,         47,        1,   405504, 0x507e17ce
0,         48,         48,        1,   405504, 0x3e687c78
0,         49,         49,        1,   405504, 0x7064800f
